# xmcd
#
# Track frame offsets: 
#        150
#        19591
#        38965
#        56872
#        78842
#        98433
#        115746
#        132899
#        153217
#        173134
#        194159
#
# Disc length: 2901 seconds
#
# Revision: 0
# Processed by: cddbd v1.4PL0 Copyright (c) Steve Scherf et al.
# Submitted via: ExactAudioCopy v0.95a3
#
DISCID=850b530b
DTITLE=Pete Francis - Untold
DYEAR=2003
DGENRE=Alternative
TTITLE0=One Train
TTITLE1=Burning the River
TTITLE2=Julie
TTITLE3=Stones
TTITLE4=Untold
TTITLE5=Shake the Pain
TTITLE6=Coal Miner
TTITLE7=Beneath the Fire
TTITLE8=Motion
TTITLE9=Sandcastle City
TTITLE10=OK
EXTD=
EXTT0=
EXTT1=
EXTT2=
EXTT3=
EXTT4=
EXTT5=
EXTT6=
EXTT7=
EXTT8=
EXTT9=
EXTT10=
PLAYORDER=
